<?xml version="1.0" encoding="utf-8"?>
<!-- Generator: Adobe Illustrator 23.0.2, SVG Export Plug-In . SVG Version: 6.00 Build 0)  -->
<svg version="1.1" id="Calque_1" xmlns="http://www.w3.org/2000/svg" xmlns:xlink="http://www.w3.org/1999/xlink" x="0px" y="0px"
	 width="536px" height="339px" viewBox="0 0 536 339" style="enable-background:new 0 0 536 339;" xml:space="preserve">
<style type="text/css">
	.st0{fill:#FF6600;}
	.st1{fill:#3B3D3D;}
	.st2{clip-path:url(#SVGID_2_);}
	.st3{clip-path:url(#SVGID_2_);fill:#FF6600;}
	.st4{fill:none;}
	.st5{clip-path:url(#SVGID_4_);}
	.st6{clip-path:url(#SVGID_4_);fill:#FF6600;}
	.st7{clip-path:url(#SVGID_6_);}
	.st8{clip-path:url(#SVGID_6_);fill:#3B3D3D;}
</style>
<g>
	<g>
		<path class="st0" d="M67.6,242.9c0-8.2-6.7-15-15-15c-8.3,0-15,6.7-15,15c0,8.2,6.7,15,15,15C60.9,257.9,67.6,251.2,67.6,242.9
			L67.6,242.9z M52.7,250.4c-4.1,0-7.5-3.4-7.5-7.5c0-4.1,3.4-7.5,7.5-7.5c4.1,0,7.5,3.4,7.5,7.5C60.1,247.1,56.8,250.4,52.7,250.4
			L52.7,250.4z M52.7,250.4"/>
		<path class="st0" d="M48.9,291.6v29.9c0,2.1,1.7,3.7,3.7,3.7c2.1,0,3.7-1.7,3.7-3.7v-29.9c0-2.1-1.7-3.7-3.7-3.7
			C50.6,287.8,48.9,289.5,48.9,291.6L48.9,291.6z M48.9,291.6"/>
		<g>
			<defs>
				<rect id="SVGID_5_" x="-59.5" y="182.9" width="224.5" height="225.1"/>
			</defs>
			<clipPath id="SVGID_2_">
				<use xlink:href="#SVGID_5_"  style="overflow:visible;"/>
			</clipPath>
			<path style="clip-path:url(#SVGID_2_);fill:#3B3D3D;" d="M7.8,314c0,2.1,1.7,3.7,3.7,3.7h11.2v3.7c0,2.1,1.7,3.7,3.7,3.7
				c2.1,0,3.7-1.7,3.7-3.7v-3.7h7.5c2.1,0,3.7-1.7,3.7-3.7c0-2.1-1.7-3.7-3.7-3.7H15.3v-3.7c0-11,3.8-15.6,7.8-20.5
				c3.5-4.3,7.2-8.8,7.2-16.9v-37.4c0-13.1,6.1-19.5,6.6-20l15.8-19l16,19.2c0.3,0.3,6.4,6.8,6.4,19.8v37.4c0,8.1,3.7,12.5,7.2,16.9
				c4,4.9,7.8,9.5,7.8,20.5v3.7H67.6c-2.1,0-3.7,1.7-3.7,3.7c0,2.1,1.7,3.7,3.7,3.7h7.5v3.7c0,2.1,1.7,3.7,3.7,3.7
				c2.1,0,3.7-1.7,3.7-3.7v-3.7h11.2c2.1,0,3.7-1.7,3.7-3.7v-7.5c0-13.7-5.2-20.1-9.4-25.3c-3.2-3.9-5.5-6.7-5.5-12.1v-37.4
				c0-16.3-8.2-24.7-8.3-24.8l-18.7-22.4c-1.4-1.7-4.3-1.7-5.7,0l-18.5,22.2c-0.4,0.4-8.6,8.8-8.6,25.1v37.4c0,5.4-2.3,8.2-5.5,12.1
				c-4.2,5.2-9.4,11.6-9.4,25.3V314z M7.8,314"/>
		</g>
	</g>
	<path class="st1" d="M250.2,62.8c-7.5,0-12,5.9-12,12.9v1.1c-9.8-7.9-21.1-13.2-34.7-13.2c-30.4,0-54.9,24.7-54.9,54.9
		c0,30.2,24.5,54.7,54.9,54.7c13.6,0,25-5,34.7-13.4v2.7c0,7,4.5,12.9,12,12.9c7.5,0,13.2-5.9,13.2-12.9V75.7
		C263.4,68.7,257.7,62.8,250.2,62.8z M203.4,146.8c-15.7,0-28.6-12.5-28.6-28.2s12.9-28.4,28.6-28.4c15.4,0,28.4,12.7,28.4,28.4
		S218.9,146.8,203.4,146.8z"/>
	<path class="st1" d="M345.2,109.8c-7.5-3.4-15-3.4-20.9-3.6c-3.6,0-7,0-9.3-0.7c-1.8-0.7-3.9-3.6-4.1-4.8
		c-0.9-9.8,11.8-10.2,18.6-9.1c4.1,0.7,6.4,2.3,9.5,4.5c1.8,1.1,3.9,1.8,5.9,2.1c4.3,0.5,8.6-1.1,11.6-4.3c5-5.5,4.5-14.1-0.9-19.1
		c-5.7-5.2-12.5-8.4-21.6-10c-12-2-28.6-0.5-40,10c-5.2,5-11.4,13.8-10.2,28.1c0.9,11.8,10.4,24.1,22.2,27.9
		c6.4,2.3,12.5,2.5,17.9,2.5c4.1,0,7.7,0,9.8,1.1c2.3,0.9,5,3.2,5,6.3c0,2.5-1.4,5-3.6,6.4c-8.6,5.7-23.8,0.5-27.9-3.4
		c-5.4-5-14.1-4.8-19.1,0.9c-5.2,5.4-4.8,14.1,0.7,19.1c7.5,7,22,12.9,36.5,12.9c8.6,0,17-1.8,24.7-6.8c9.8-6.6,15.7-17.5,15.7-29.1
		C365.8,127.7,357.7,115.5,345.2,109.8z"/>
	<path class="st1" d="M428.4,63.9c-8.4,0-16.3,2-23.4,5.7V19.7c0-7.5-6.1-13.8-13.8-13.8c-7.5,0-13.9,6.4-13.9,13.8v144.8
		c0,7.5,6.4,13.6,13.9,13.6c7.7,0,13.8-6.1,13.8-13.6v-49.7c0-12.9,10.4-23.4,23.4-23.4c12.9,0,23.4,10.4,23.4,23.4v49.7
		c0,7.5,6.1,13.6,13.8,13.6c7.5,0,13.6-6.1,13.6-13.6v-49.7C479.2,86.6,456.5,63.9,428.4,63.9z"/>
	<path class="st0" d="M268,234.9c-8.3-13.9-21.7-23.6-37.3-26.6c-3.5-0.7-6.7-0.9-10.1-0.9c-32,0-57.6,26.4-57.6,58
		c0,32.1,25.6,58,57.6,58c13.1,0,30.9-4.2,43.6-16.4c5.5-5.3,5.8-14.3,0.2-19.7c-5.3-5.6-14.1-5.6-19.6-0.2
		c-6,5.8-16.8,8.8-24.2,8.8c-14.3,0-26-10.2-29.3-23.4h71c5.5,0,9.5-3.9,11.3-8.3c0.9-2.3,1.8-4.6,1.8-6.7
		C275.9,249.9,271.7,241.3,268,234.9z M195.2,249.2c5.5-8.6,14.8-13.9,25.4-13.9c10.4,0,18.9,5.1,23.5,13.9H195.2z"/>
	<path class="st0" d="M389.8,206.2c-7.7,0-12.3,6.1-12.3,13.3v1.2c-10-8.2-21.7-13.5-35.6-13.5c-31.2,0-56.4,25.4-56.4,56.4
		c0,31,25.2,56.2,56.4,56.2c14,0,25.6-5.1,35.6-13.8v2.8c0,7.2,4.7,13.3,12.3,13.3c7.7,0,13.5-6.1,13.5-13.3v-89.2
		C403.3,212.3,397.5,206.2,389.8,206.2z M341.8,292.4c-16.1,0-29.4-12.8-29.4-28.9c0-16.1,13.3-29.1,29.4-29.1
		c15.8,0,29.1,13,29.1,29.1C370.9,279.6,357.6,292.4,341.8,292.4z"/>
	<path class="st0" d="M476.8,207.3c-10.4,0-19.8,3-28.1,8.3c-1.8-5.6-6.9-9.5-12.9-9.5c-7.6,0-13.8,6.2-13.8,13.9v88.3
		c0,7.6,6.2,13.9,13.8,13.9c7.6,0,13.8-6.2,13.8-13.9v-39.3c0-15.9,9.2-34,27.2-34c14.5,0,26.5,13.2,26.5,29.6v43.7
		c0,7.6,6,13.9,13.8,13.9c7.6,0,13.6-6.2,13.6-13.9v-43.7C530.7,233,506.5,207.3,476.8,207.3z"/>
	<path class="st1" d="M122.1,4c-7.5,0-13.6,6.4-13.6,13.8V71c-9.3-5.9-20.2-9.5-32-9.5C44.9,61.4,19,87.3,19,118.9
		c0,31.8,25.9,57.4,57.4,57.4c12,0,23.4-3.6,32.5-10c1.8,5.7,7,9.5,13.2,9.5c7.7,0,13.8-6.1,13.8-13.6V17.8
		C135.9,10.4,129.8,4,122.1,4z M76.5,148.8c-16.6,0-30-13.4-30-30s13.4-30,30-30c16.6,0,30,13.4,30,30S93,148.8,76.5,148.8z"/>
	<g>
		<path class="st0" d="M139.6,289.7c-2.1,0-3.7-2.2-3.7-4.6c0-0.8-0.2-1.6-0.2-2.5c0-0.8,0.2-1.6,0.2-2.5v-98.5
			c-2.7,4.7-7.8,7.9-13.7,7.9c-6.3,0-11.7-3.7-14.2-8.9c0,3.5,0,7,0,10.4v81.5c0,12.8-0.5,24.8,6.5,35.4c6,9,15.4,14.7,25.1,14.7
			c7.8,0,14.1-7.4,14.1-16.6C153.7,297.1,147.4,289.7,139.6,289.7z"/>
	</g>
</g>
</svg>
